# 3ds Max Wavefront OBJ Exporter v0.97b - (c)2007 guruware
# File Created: 02.02.2019 01:00:59

mtllib elusivebook.mtl

#
# object sm_0
#

v  -23.8595 -11.8940 3.3680
v  -23.7676 -15.4985 4.1108
v  -22.1372 -15.3836 3.0396
v  -24.6704 15.1935 2.7566
v  -20.9939 15.1935 3.0094
v  -16.0893 -15.2604 3.2045
v  -16.0893 15.3736 3.2045
v  -13.6095 -15.3968 3.5556
v  -13.6103 15.5547 3.5555
v  -11.1359 -15.4985 3.9757
v  -11.1359 15.7139 3.9757
v  -8.5493 -15.3729 4.2843
v  -8.5493 15.7446 4.2839
v  -5.9681 -15.2040 4.2719
v  -5.9681 15.7139 4.2719
v  -1.5373 -15.2015 3.3673
v  -1.5373 15.7139 3.3673
v  0.0043 -15.2015 2.7616
v  0.0043 15.7139 2.7616
v  1.6960 -15.2415 3.4037
v  1.6960 15.7139 3.4037
v  3.8121 15.7363 3.9733
v  3.8113 -15.3963 3.9735
v  5.9768 -15.4985 4.2745
v  5.9768 15.7139 4.2745
v  8.5572 -15.3797 4.2850
v  8.5580 15.5615 4.2852
v  11.1446 -15.2517 3.9757
v  11.1446 15.4564 3.9757
v  16.0980 -15.4985 3.2045
v  16.0980 15.7139 3.2045
v  20.5123 -10.6126 2.6320
v  21.0026 -15.4985 3.8563
v  21.0026 15.3965 3.0094
v  24.4606 -4.9639 2.7652
v  24.0230 14.8376 3.0937
v  24.6060 -11.7207 3.2953
v  24.6791 -14.8866 2.6574
v  -24.3357 15.3624 0.0803
v  -25.7421 14.7855 0.0681
v  -25.4153 15.0830 1.6119
v  -24.5046 16.0036 1.6146
v  -24.9407 14.6546 2.5616
v  -21.5871 16.0036 1.6347
v  -23.3606 15.7139 2.5573
v  -21.1950 15.7139 2.5263
v  -16.4515 15.7139 1.8710
v  -2.6342 15.6628 0.5566
v  -16.1694 15.7139 2.8899
v  -11.3159 16.0036 2.6504
v  -11.1438 15.7139 3.8559
v  -7.1514 15.8994 2.6613
v  -8.6239 15.7139 4.2105
v  -6.1182 15.7139 4.1683
v  -2.9901 15.7139 2.2034
v  -3.0208 15.7139 3.6109
v  -1.5915 15.7139 1.9604
v  -0.1277 15.7139 1.6311
v  -2.2122 15.6628 -0.0009
v  0.0468 15.7139 2.6848
v  2.2209 15.3546 -0.0009
v  2.6429 15.3546 0.5566
v  1.3370 15.8342 1.8630
v  3.0750 15.7139 3.5886
v  2.7285 15.9749 2.0648
v  6.1269 15.7139 4.1683
v  7.0242 16.0425 2.5835
v  8.6350 15.7139 4.1997
v  11.3246 15.9749 2.6504
v  16.4602 15.9749 1.8710
v  25.7508 15.3546 0.0681
v  11.1525 15.7139 3.8559
v  16.1781 15.7139 2.8899
v  21.5958 15.9749 1.6347
v  21.2037 15.7139 2.5263
v  24.9643 15.7139 1.6146
v  24.4897 15.7139 2.5573
v  24.9494 -14.4718 2.5616
v  24.4897 -15.4985 2.5573
v  24.9643 -15.4985 1.6146
v  25.6149 -14.8486 1.6119
v  25.7508 -15.3013 0.0681
v  25.4240 15.2539 1.6119
v  24.9494 14.8279 2.5616
v  -24.9407 -14.6198 2.5616
v  -24.4810 -15.4985 2.5573
v  -21.1950 -15.4985 2.5263
v  -16.1694 -15.4985 2.8899
v  -11.1438 -15.4985 3.8559
v  -8.6239 -15.4985 4.2105
v  -6.1182 -15.4985 4.1683
v  -3.0208 -15.4985 3.6109
v  0.0468 -15.4985 2.6848
v  3.0750 -15.4985 3.5886
v  6.1269 -15.4985 4.1683
v  8.6350 -15.4985 4.1997
v  11.1525 -15.4985 3.8559
v  16.1781 -15.4985 2.8899
v  21.2037 -15.4985 2.5263
v  -25.7421 -15.1397 0.0681
v  -2.6342 -15.4104 0.5566
v  -2.2122 -15.4104 -0.0009
v  2.2209 -14.9498 -0.0009
v  2.6429 -14.9498 0.5566
v  -0.1277 -15.3914 1.6311
v  1.3370 -15.5340 1.8633
v  -1.5923 -15.3009 1.9575
v  2.7285 -15.7059 2.0648
v  -2.9901 -15.1908 2.2034
v  7.0226 -15.8617 2.5832
v  -7.1491 -15.1894 2.6624
v  11.3246 -15.7984 2.6504
v  -11.3159 -15.3622 2.6504
v  -16.4515 -15.5842 1.8710
v  16.4602 -15.6061 1.8710
v  -21.5871 -15.5842 1.6347
v  21.5958 -15.4985 1.6347
v  -24.9556 -15.4985 1.6146
v  -25.6706 -14.8992 1.6119
# 119 vertices

vn 0.2926 0.0546 0.9547
vn 0.5306 0.1840 0.8274
vn 0.2210 0.0764 0.9723
vn -0.0577 0.0045 0.9983
vn -0.0529 0.0018 0.9986
vn -0.0851 0.0009 0.9964
vn -0.0918 -0.0000 0.9958
vn -0.1542 -0.0000 0.9880
vn -0.1544 -0.0000 0.9880
vn -0.1431 -0.0000 0.9897
vn -0.1423 0.0000 0.9898
vn -0.0592 0.0000 0.9982
vn -0.0569 0.0000 0.9984
vn 0.1009 0.0000 0.9949
vn 0.1025 0.0000 0.9947
vn 0.2839 0.0000 0.9589
vn 0.2839 0.0000 0.9588
vn 0.0031 0.0000 1.0000
vn 0.0058 0.0000 1.0000
vn -0.3065 0.0000 0.9519
vn -0.3076 0.0000 0.9515
vn -0.1993 0.0000 0.9799
vn -0.1970 0.0000 0.9804
vn -0.0710 0.0000 0.9975
vn -0.0726 -0.0000 0.9974
vn 0.0556 -0.0000 0.9985
vn 0.0555 -0.0000 0.9985
vn 0.1363 -0.0000 0.9907
vn 0.1364 0.0000 0.9907
vn 0.0709 0.0640 0.9954
vn 0.1017 -0.0068 0.9948
vn -0.0955 0.1084 0.9895
vn -0.0254 0.1166 0.9929
vn 0.0074 -0.0160 0.9998
vn -0.0357 0.0171 0.9992
vn -0.0311 -0.0173 0.9994
vn 0.1416 0.0120 0.9899
vn 0.3318 -0.1790 0.9262
vn -0.2611 0.9149 -0.3079
vn -0.3770 0.9211 -0.0977
vn -0.6227 0.7712 0.1320
vn -0.4075 0.9083 0.0950
vn -0.5021 0.5997 0.6231
vn 0.0415 0.9945 -0.0957
vn -0.1273 0.8929 0.4319
vn 0.0246 0.9597 0.2799
vn -0.0127 0.9967 -0.0800
vn 0.0027 0.9994 -0.0350
vn -0.0358 0.9990 0.0271
vn -0.0247 0.9997 0.0040
vn -0.0386 0.9703 0.2387
vn 0.0259 0.9991 0.0331
vn 0.0108 0.9888 0.1490
vn 0.0297 0.9958 0.0864
vn 0.0155 0.9999 -0.0065
vn 0.0000 1.0000 -0.0000
vn -0.0032 0.9999 -0.0155
vn 0.0044 0.9974 -0.0715
vn 0.0100 0.9990 -0.0440
vn -0.0332 0.9991 0.0273
vn 0.0911 0.9920 -0.0873
vn 0.0304 0.9607 -0.2758
vn -0.0452 0.9896 -0.1366
vn -0.0505 0.9846 0.1674
vn -0.0474 0.9941 -0.0972
vn -0.0243 0.9817 0.1887
vn 0.0046 0.9968 -0.0798
vn 0.0108 0.9808 0.1948
vn 0.0066 0.9997 0.0215
vn 0.0079 0.9983 -0.0585
vn 0.0456 0.9655 -0.2563
vn 0.0344 0.9757 0.2162
vn 0.0314 0.9669 0.2531
vn 0.0015 0.9974 -0.0715
vn 0.0077 0.9595 0.2817
vn 0.0761 0.9910 -0.1104
vn 0.0655 0.9950 0.0760
vn 0.7992 -0.2110 0.5628
vn 0.8288 -0.3728 0.4173
vn 0.7021 -0.5638 0.4349
vn 0.8615 -0.3234 0.3916
vn 0.9651 -0.2138 0.1513
vn 0.8743 0.3527 0.3336
vn 0.8497 0.1677 0.4999
vn 0.9661 0.1443 0.2139
vn 0.6790 0.6769 0.2842
vn 0.7284 0.4852 0.4838
vn 0.0101 -0.0025 0.9999
vn 0.0094 0.0000 1.0000
vn -0.0314 0.0000 0.9995
vn -0.0310 -0.0015 0.9995
vn 0.0143 -0.0173 0.9997
vn -0.1307 0.0000 0.9914
vn -0.1641 0.0000 0.9864
vn -0.0614 0.0000 0.9981
vn 0.0973 0.0000 0.9953
vn 0.2334 0.0000 0.9724
vn 0.0016 0.0000 1.0000
vn -0.2366 0.0000 0.9716
vn -0.0999 0.0000 0.9950
vn 0.0616 0.0000 0.9981
vn 0.1621 0.0000 0.9868
vn 0.1307 0.0000 0.9914
vn 0.0314 0.0000 0.9995
vn 0.0314 -0.0000 0.9995
vn -0.0094 0.0000 1.0000
vn -0.0094 -0.0000 1.0000
vn 0.0211 -0.0002 -0.9998
vn 0.0087 0.0000 -1.0000
vn 0.0165 -0.0004 -0.9999
vn -0.4376 -0.0002 -0.8992
vn -0.4375 0.0000 -0.8992
vn -0.4553 0.0000 -0.8904
vn -0.4603 0.0000 -0.8877
vn 0.4356 0.0000 -0.9001
vn 0.4310 0.0000 -0.9024
vn 0.4357 0.0000 -0.9001
vn 0.4335 0.0000 -0.9011
vn -0.0211 0.0000 -0.9998
vn 0.0350 -0.9988 -0.0331
vn 0.1166 -0.9882 -0.0997
vn -0.0064 -0.9943 -0.1062
vn 0.0339 -0.9444 -0.3271
vn -0.0090 -0.9969 0.0785
vn -0.0426 -0.9777 -0.2059
vn -0.0588 -0.9955 -0.0746
vn -0.0577 -0.9980 -0.0254
vn -0.0462 -0.9907 0.1278
vn -0.0587 -0.9875 -0.1464
vn -0.0577 -0.9772 -0.2041
vn -0.0465 -0.9979 -0.0445
vn -0.0344 -0.9799 0.1963
vn -0.0004 -0.9934 -0.1151
vn -0.0174 -0.9807 -0.1947
vn 0.0194 -0.9998 -0.0073
vn 0.0105 -0.9761 0.2171
vn 0.0154 -0.9991 -0.0384
vn 0.0261 -0.9863 -0.1632
vn 0.0392 -0.9683 0.2465
vn 0.0368 -0.9915 0.1249
vn 0.0250 -0.9997 0.0035
vn 0.0186 -0.9932 -0.1149
vn 0.0167 -0.9977 0.0650
vn 0.0021 -0.9984 -0.0563
vn 0.0036 -0.9962 -0.0865
vn 0.0128 -0.9998 0.0124
vn -0.0148 -0.9735 -0.2282
vn -0.0026 -0.9954 0.0960
vn 0.0032 -0.9940 -0.1089
vn 0.0115 -0.9991 -0.0415
vn -0.0011 -0.9898 -0.1427
vn 0.0000 -1.0000 -0.0000
vn -0.0005 -0.9966 -0.0827
vn -0.0244 -0.9904 -0.1358
vn -0.0216 -0.9995 0.0251
vn -0.6223 -0.7414 0.2512
vn -0.6759 -0.5237 0.5185
vn -0.8753 -0.3533 0.3303
vn -0.7549 -0.1755 0.6319
vn -0.9698 -0.2302 0.0808
vn -0.8914 0.0075 0.4532
vn -0.9796 0.0081 0.2009
vn -0.9470 0.0081 0.3212
# 163 vertex normals

vt 0.0113 -0.5324 0.0000
vt 0.0498 -0.5293 0.0000
vt 0.0153 -0.4702 0.0000
vt 0.0037 -0.0118 0.0000
vt 0.0765 -0.0122 0.0000
vt 0.1695 -0.5279 0.0000
vt 0.1736 -0.0097 0.0000
vt 0.2190 -0.5305 0.0000
vt 0.2232 -0.0070 0.0000
vt 0.2686 -0.5325 0.0000
vt 0.2728 -0.0046 0.0000
vt 0.3201 -0.5307 0.0000
vt 0.3244 -0.0044 0.0000
vt 0.3712 -0.5282 0.0000
vt 0.3754 -0.0052 0.0000
vt 0.4606 -0.5286 0.0000
vt 0.4649 -0.0057 0.0000
vt 0.4934 -0.5288 0.0000
vt 0.4976 -0.0059 0.0000
vt 0.5292 -0.5297 0.0000
vt 0.5334 -0.0061 0.0000
vt 0.5768 -0.0060 0.0000
vt 0.5725 -0.5326 0.0000
vt 0.6157 -0.5346 0.0000
vt 0.6200 -0.0066 0.0000
vt 0.6668 -0.5329 0.0000
vt 0.6710 -0.0095 0.0000
vt 0.7183 -0.5310 0.0000
vt 0.7225 -0.0116 0.0000
vt 0.8174 -0.5358 0.0000
vt 0.8217 -0.0078 0.0000
vt 0.9054 -0.4528 0.0000
vt 0.9170 -0.5377 0.0000
vt 0.9196 -0.0139 0.0000
vt 0.9847 -0.3594 0.0000
vt 0.9793 -0.0237 0.0000
vt 0.9879 -0.4734 0.0000
vt 0.9931 -0.5276 0.0000
vt 0.5904 -0.9950 0.0000
vt 0.5861 -0.9741 0.0000
vt 0.5730 -0.9944 0.0000
vt 0.5727 -0.9738 0.0000
vt 0.5845 -0.9583 0.0000
vt 0.5425 -0.9723 0.0000
vt 0.5628 -0.9601 0.0000
vt 0.5381 -0.9600 0.0000
vt 0.4839 -0.9704 0.0000
vt 0.3276 -0.9878 0.0000
vt 0.4806 -0.9568 0.0000
vt 0.4258 -0.9597 0.0000
vt 0.4240 -0.9434 0.0000
vt 0.3788 -0.9597 0.0000
vt 0.3955 -0.9389 0.0000
vt 0.3671 -0.9397 0.0000
vt 0.3317 -0.9660 0.0000
vt 0.3320 -0.9473 0.0000
vt 0.3158 -0.9693 0.0000
vt 0.2991 -0.9737 0.0000
vt 0.3229 -0.9952 0.0000
vt 0.2973 -0.9597 0.0000
vt 0.2724 -0.9962 0.0000
vt 0.2676 -0.9889 0.0000
vt 0.2824 -0.9704 0.0000
vt 0.2633 -0.9471 0.0000
vt 0.2667 -0.9675 0.0000
vt 0.2289 -0.9389 0.0000
vt 0.2185 -0.9603 0.0000
vt 0.2005 -0.9384 0.0000
vt 0.1699 -0.9592 0.0000
vt 0.1115 -0.9687 0.0000
vt 0.0065 -0.9932 0.0000
vt 0.1720 -0.9429 0.0000
vt 0.1149 -0.9548 0.0000
vt 0.0535 -0.9713 0.0000
vt 0.0579 -0.9590 0.0000
vt 0.0155 -0.9721 0.0000
vt 0.0208 -0.9595 0.0000
vt 0.9525 -0.9936 0.0000
vt 0.9524 -0.9794 0.0000
vt 0.9398 -0.9910 0.0000
vt 0.9427 -0.9758 0.0000
vt 0.9492 -0.9559 0.0000
vt 0.6089 -0.9764 0.0000
vt 0.6129 -0.9911 0.0000
vt 0.6064 -0.9549 0.0000
vt 0.6015 -0.9790 0.0000
vt 0.6012 -0.9936 0.0000
vt 0.5030 -0.8789 0.0000
vt 0.5080 -0.8903 0.0000
vt 0.5051 -0.5495 0.0000
vt 0.5398 -0.8905 0.0000
vt 0.5414 -0.5377 0.0000
vt 0.5205 -0.5376 0.0000
vt 0.5885 -0.8909 0.0000
vt 0.5901 -0.5381 0.0000
vt 0.6379 -0.8912 0.0000
vt 0.6396 -0.5384 0.0000
vt 0.6625 -0.8913 0.0000
vt 0.6642 -0.5385 0.0000
vt 0.6868 -0.8915 0.0000
vt 0.6884 -0.5387 0.0000
vt 0.7172 -0.8917 0.0000
vt 0.7188 -0.5389 0.0000
vt 0.7482 -0.8919 0.0000
vt 0.7498 -0.5391 0.0000
vt 0.7787 -0.8921 0.0000
vt 0.7804 -0.5393 0.0000
vt 0.8087 -0.8923 0.0000
vt 0.8104 -0.5395 0.0000
vt 0.8330 -0.8924 0.0000
vt 0.8346 -0.5396 0.0000
vt 0.8575 -0.8926 0.0000
vt 0.8592 -0.5398 0.0000
vt 0.9070 -0.8929 0.0000
vt 0.9087 -0.5401 0.0000
vt 0.9557 -0.8932 0.0000
vt 0.9574 -0.5404 0.0000
vt 0.9920 -0.8818 0.0000
vt 0.9875 -0.8934 0.0000
vt 0.9892 -0.5406 0.0000
vt 0.9942 -0.5521 0.0000
vt 0.0113 -0.8653 0.0000
vt 0.0244 -0.8716 0.0000
vt 0.0122 -0.5391 0.0000
vt 0.2267 -0.8757 0.0000
vt 0.2277 -0.5370 0.0000
vt 0.2332 -0.8757 0.0000
vt 0.2342 -0.5370 0.0000
vt 0.2746 -0.8725 0.0000
vt 0.2755 -0.5422 0.0000
vt 0.2811 -0.8725 0.0000
vt 0.2820 -0.5422 0.0000
vt 0.4966 -0.8734 0.0000
vt 0.4975 -0.5392 0.0000
vt 0.3207 -0.9402 0.0000
vt 0.2941 -0.9173 0.0000
vt 0.2700 -0.9386 0.0000
vt 0.3257 -0.9330 0.0000
vt 0.2653 -0.9312 0.0000
vt 0.3109 -0.9139 0.0000
vt 0.2961 -0.9032 0.0000
vt 0.2774 -0.9127 0.0000
vt 0.3302 -0.8906 0.0000
vt 0.3267 -0.9108 0.0000
vt 0.2616 -0.8902 0.0000
vt 0.2615 -0.9092 0.0000
vt 0.3645 -0.8823 0.0000
vt 0.3748 -0.9037 0.0000
vt 0.2267 -0.8823 0.0000
vt 0.2149 -0.9024 0.0000
vt 0.3929 -0.8819 0.0000
vt 0.4232 -0.9030 0.0000
vt 0.1984 -0.8815 0.0000
vt 0.4214 -0.8866 0.0000
vt 0.4780 -0.8997 0.0000
vt 0.1678 -0.9020 0.0000
vt 0.1698 -0.8859 0.0000
vt 0.1130 -0.8981 0.0000
vt 0.1096 -0.9115 0.0000
vt 0.4811 -0.9132 0.0000
vt 0.5346 -0.9044 0.0000
vt 0.0046 -0.9345 0.0000
vt 0.0562 -0.9019 0.0000
vt 0.0517 -0.9137 0.0000
vt 0.5391 -0.9161 0.0000
vt 0.5860 -0.9366 0.0000
vt 0.5717 -0.9038 0.0000
vt 0.5770 -0.9162 0.0000
vt 0.0137 -0.9136 0.0000
vt 0.0191 -0.9012 0.0000
vt 0.6041 -0.9465 0.0000
vt 0.6142 -0.9283 0.0000
vt 0.6043 -0.9320 0.0000
vt 0.6155 -0.9440 0.0000
vt 0.6095 -0.9087 0.0000
vt 0.9407 -0.9455 0.0000
vt 0.9423 -0.9086 0.0000
vt 0.9459 -0.9307 0.0000
# 178 texture coords

g sm_0
usemtl Material__31
s 1
f 1/3/1 2/1/2 3/2/3 
f 1/3/1 3/2/3 4/4/4 
f 5/5/5 4/4/4 3/2/3 
f 5/5/5 3/2/3 6/6/6 
f 7/7/7 5/5/5 6/6/6 
f 7/7/7 6/6/6 8/8/8 
f 9/9/9 7/7/7 8/8/8 
f 9/9/9 8/8/8 10/10/10 
f 11/11/11 9/9/9 10/10/10 
f 11/11/11 10/10/10 12/12/12 
f 13/13/13 11/11/11 12/12/12 
f 13/13/13 12/12/12 14/14/14 
f 15/15/15 13/13/13 14/14/14 
f 15/15/15 14/14/14 16/16/16 
f 17/17/17 15/15/15 16/16/16 
f 17/17/17 16/16/16 18/18/18 
f 19/19/19 17/17/17 18/18/18 
f 19/19/19 18/18/18 20/20/20 
f 21/21/21 19/19/19 20/20/20 
f 21/21/21 20/20/20 22/22/22 
f 22/22/22 20/20/20 23/23/23 
f 22/22/22 23/23/23 24/24/24 
f 25/25/25 22/22/22 24/24/24 
f 25/25/25 24/24/24 26/26/26 
f 27/27/27 25/25/25 26/26/26 
f 27/27/27 26/26/26 28/28/28 
f 29/29/29 27/27/27 28/28/28 
f 29/29/29 28/28/28 30/30/30 
f 31/31/31 29/29/29 30/30/30 
f 31/31/31 30/30/30 32/32/32 
f 32/32/32 30/30/30 33/33/33 
f 34/34/34 31/31/31 32/32/32 
f 34/34/34 32/32/32 35/35/35 
f 32/32/32 33/33/33 35/35/35 
f 36/36/36 34/34/34 35/35/35 
f 37/37/37 35/35/35 33/33/33 
f 37/37/37 33/33/33 38/38/38 
f 39/41/39 40/39/40 41/40/41 
f 39/41/39 41/40/41 42/42/42 
f 43/43/43 42/42/42 41/40/41 
f 44/44/44 39/41/39 42/42/42 
f 43/43/43 45/45/45 42/42/42 
f 44/44/44 42/42/42 45/45/45 
f 46/46/46 44/44/44 45/45/45 
f 44/44/44 47/47/47 39/41/39 
f 44/44/44 46/46/46 47/47/47 
f 48/48/48 39/41/39 47/47/47 
f 49/49/49 47/47/47 46/46/46 
f 48/48/48 47/47/47 50/50/50 
f 49/49/49 50/50/50 47/47/47 
f 51/51/51 50/50/50 49/49/49 
f 52/52/52 48/48/48 50/50/50 
f 51/51/51 53/53/53 50/50/50 
f 52/52/52 50/50/50 53/53/53 
f 54/54/54 52/52/52 53/53/53 
f 55/55/55 52/52/52 54/54/54 
f 55/55/55 48/48/48 52/52/52 
f 55/55/55 54/54/54 56/56/56 
f 55/55/55 56/56/56 57/57/57 
f 48/48/48 55/55/55 57/57/57 
f 48/48/48 57/57/57 58/58/58 
f 59/59/59 48/48/48 58/58/58 
f 57/57/57 60/60/60 58/58/58 
f 60/60/60 57/57/57 56/56/56 
f 59/59/59 58/58/58 61/61/61 
f 62/62/62 61/61/61 58/58/58 
f 60/60/60 63/63/63 58/58/58 
f 62/62/62 58/58/58 63/63/63 
f 60/60/60 64/64/64 63/63/63 
f 65/65/65 62/62/62 63/63/63 
f 65/65/65 63/63/63 64/64/64 
f 66/66/66 65/65/65 64/64/64 
f 67/67/67 62/62/62 65/65/65 
f 67/67/67 65/65/65 66/66/66 
f 67/67/67 66/66/66 68/68/68 
f 67/67/67 68/68/68 69/69/69 
f 62/62/62 67/67/67 69/69/69 
f 62/62/62 69/69/69 70/70/70 
f 71/71/71 62/62/62 70/70/70 
f 72/72/72 69/69/69 68/68/68 
f 73/73/73 70/70/70 69/69/69 
f 72/72/72 73/73/73 69/69/69 
f 71/71/71 70/70/70 74/74/74 
f 73/73/73 75/75/75 70/70/70 
f 75/75/75 74/74/74 70/70/70 
f 76/76/76 71/71/71 74/74/74 
f 76/76/76 74/74/74 77/77/77 
f 75/75/75 77/77/77 74/74/74 
f 78/80/78 79/78/79 80/79/80 
f 78/80/78 80/79/80 81/81/81 
f 80/79/80 82/82/82 81/81/81 
f 83/83/83 78/80/78 81/81/81 
f 83/83/83 81/81/81 82/82/82 
f 83/83/83 84/84/84 78/80/78 
f 71/85/85 83/83/83 82/82/82 
f 83/83/83 71/85/85 76/86/86 
f 84/84/84 83/83/83 77/87/87 
f 83/83/83 76/86/86 77/87/87 
f 43/90/88 85/88/89 86/89/89 
f 43/90/88 86/89/89 87/91/90 
f 46/92/91 43/90/88 87/91/90 
f 43/90/88 46/92/91 45/93/92 
f 46/92/91 87/91/90 88/94/93 
f 49/95/93 46/92/91 88/94/93 
f 49/95/93 88/94/93 89/96/94 
f 51/97/94 49/95/93 89/96/94 
f 51/97/94 89/96/94 90/98/95 
f 53/99/95 51/97/94 90/98/95 
f 53/99/95 90/98/95 91/100/96 
f 54/101/96 53/99/95 91/100/96 
f 54/101/96 91/100/96 92/102/97 
f 56/103/97 54/101/96 92/102/97 
f 56/103/97 92/102/97 93/104/98 
f 60/105/98 56/103/97 93/104/98 
f 60/105/98 93/104/98 94/106/99 
f 64/107/99 60/105/98 94/106/99 
f 64/107/99 94/106/99 95/108/100 
f 66/109/100 64/107/99 95/108/100 
f 66/109/100 95/108/100 96/110/101 
f 68/111/101 66/109/100 96/110/101 
f 68/111/101 96/110/101 97/112/102 
f 72/113/102 68/111/101 97/112/102 
f 72/113/102 97/112/102 98/114/103 
f 73/115/103 72/113/102 98/114/103 
f 73/115/103 98/114/103 99/116/104 
f 75/117/105 73/115/103 99/116/104 
f 75/117/105 99/116/104 78/118/106 
f 79/119/106 78/118/106 99/116/104 
f 77/120/107 75/117/105 78/118/106 
f 77/120/107 78/118/106 84/121/106 
f 100/124/108 40/122/109 39/123/110 
f 100/124/108 39/123/110 48/125/111 
f 101/126/112 100/124/108 48/125/111 
f 101/126/112 48/125/111 59/127/113 
f 102/128/114 101/126/112 59/127/113 
f 102/128/114 59/127/113 61/129/115 
f 103/130/116 102/128/114 61/129/115 
f 103/130/116 61/129/115 62/131/117 
f 104/132/118 103/130/116 62/131/117 
f 104/132/118 62/131/117 71/133/119 
f 82/134/119 104/132/118 71/133/119 
f 102/137/120 103/135/121 105/136/122 
f 105/136/122 103/135/121 104/138/123 
f 102/137/120 105/136/122 101/139/124 
f 105/136/122 104/138/123 106/140/125 
f 93/141/126 105/136/122 106/140/125 
f 107/142/127 105/136/122 93/141/126 
f 107/142/127 101/139/124 105/136/122 
f 93/141/126 106/140/125 94/143/128 
f 108/144/129 106/140/125 104/138/123 
f 108/144/129 94/143/128 106/140/125 
f 107/142/127 93/141/126 92/145/130 
f 107/142/127 92/145/130 109/146/131 
f 101/139/124 107/142/127 109/146/131 
f 94/143/128 108/144/129 95/147/132 
f 110/148/133 108/144/129 104/138/123 
f 110/148/133 95/147/132 108/144/129 
f 92/145/130 91/149/134 109/146/131 
f 101/139/124 109/146/131 111/150/135 
f 91/149/134 111/150/135 109/146/131 
f 110/148/133 96/151/136 95/147/132 
f 110/148/133 104/138/123 112/152/137 
f 96/151/136 110/148/133 112/152/137 
f 91/149/134 90/153/138 111/150/135 
f 96/151/136 112/152/137 97/154/139 
f 98/155/140 97/154/139 112/152/137 
f 113/156/141 111/150/135 90/153/138 
f 113/156/141 101/139/124 111/150/135 
f 89/157/142 113/156/141 90/153/138 
f 113/156/141 89/157/142 88/158/143 
f 101/139/124 113/156/141 114/159/144 
f 113/156/141 88/158/143 114/159/144 
f 98/155/140 112/152/137 115/160/145 
f 104/138/123 115/160/145 112/152/137 
f 99/161/146 98/155/140 115/160/145 
f 101/139/124 114/159/144 100/162/147 
f 114/159/144 88/158/143 87/163/148 
f 114/159/144 87/163/148 116/164/149 
f 100/162/147 114/159/144 116/164/149 
f 99/161/146 115/160/145 117/165/150 
f 104/138/123 82/166/151 115/160/145 
f 82/166/151 117/165/150 115/160/145 
f 79/167/152 99/161/146 117/165/150 
f 79/167/152 117/165/150 80/168/153 
f 82/166/151 80/168/153 117/165/150 
f 100/162/147 116/164/149 118/169/154 
f 86/170/155 118/169/154 116/164/149 
f 86/170/155 116/164/149 87/163/148 
f 118/173/156 86/171/157 119/172/158 
f 86/171/157 85/174/159 119/172/158 
f 118/173/156 119/172/158 100/175/160 
f 43/176/161 119/172/158 85/174/159 
f 40/177/162 100/175/160 119/172/158 
f 43/176/161 41/178/163 119/172/158 
f 40/177/162 119/172/158 41/178/163 
# 0 polygons - 195 triangles

